# xmcd
#
# Track frame offsets:
#	150
#	14032
#	30300
#	42690
#	57842
#	70285
#	88375
#	102528
#	119315
#	131114
#
# Disc length: 2007 seconds
# Revision: 0
# Processed by: cddbd v1.5.2PL0 Copyright (c) Steve Scherf et al.
# Submitted via: dBpowerAMP V12.0
#
DISCID=9507d50a
DTITLE=Max Jackson - I Love Christmas
DYEAR=2017
DGENRE=Country
TTITLE0=I Love Christmas
TTITLE1=Under The Christmas Tree
TTITLE2=It's Beginging To Look A Lot Like Christmas
TTITLE3=Santa Claus Is Coming To Town/All I Want For Christmas Is You
TTITLE4=Just Believe
TTITLE5=Do You Hear What I Hear
TTITLE6=Christmas With You
TTITLE7=O Come, All Ye Faithful
TTITLE8=Up On The Housetop
TTITLE9=Peace On Earth
EXTD=
EXTT0=
EXTT1=
EXTT2=
EXTT3=
EXTT4=
EXTT5=
EXTT6=
EXTT7=
EXTT8=
EXTT9=
PLAYORDER=
